<mxfile host="app.diagrams.net" agent="Mozilla/5.0 (Windows NT 10.0; Win64; x64) AppleWebKit/537.36 (KHTML, like Gecko) Chrome/140.0.0.0 Safari/537.36" version="28.2.5">
  <diagram id="R2lEEEUBdFMjLlhIrx00" name="Page-1">
    <mxGraphModel dx="1741" dy="524" grid="1" gridSize="10" guides="1" tooltips="1" connect="1" arrows="1" fold="1" page="1" pageScale="1" pageWidth="850" pageHeight="1100" math="0" shadow="0" extFonts="Permanent Marker^https://fonts.googleapis.com/css?family=Permanent+Marker">
      <root>
        <mxCell id="0" />
        <mxCell id="1" parent="0" />
        <mxCell id="eODNS1rkglVLY219tLkL-1" value="Passeggero" style="rounded=0;whiteSpace=wrap;html=1;" parent="1" vertex="1">
          <mxGeometry x="-160" y="230" width="100" height="40" as="geometry" />
        </mxCell>
        <mxCell id="eODNS1rkglVLY219tLkL-3" value="Acquista" style="shape=rhombus;perimeter=rhombusPerimeter;whiteSpace=wrap;html=1;align=center;" parent="1" vertex="1">
          <mxGeometry x="-30" y="220" width="120" height="60" as="geometry" />
        </mxCell>
        <mxCell id="eODNS1rkglVLY219tLkL-5" value="Treno" style="whiteSpace=wrap;html=1;align=center;" parent="1" vertex="1">
          <mxGeometry x="710.4200000000001" y="400" width="100" height="40" as="geometry" />
        </mxCell>
        <mxCell id="eODNS1rkglVLY219tLkL-7" value="Viaggia" style="shape=rhombus;perimeter=rhombusPerimeter;whiteSpace=wrap;html=1;align=center;" parent="1" vertex="1">
          <mxGeometry x="530" y="390" width="120" height="60" as="geometry" />
        </mxCell>
        <mxCell id="eODNS1rkglVLY219tLkL-8" value="Tratta" style="whiteSpace=wrap;html=1;align=center;" parent="1" vertex="1">
          <mxGeometry x="360" y="490" width="100" height="40" as="geometry" />
        </mxCell>
        <mxCell id="eODNS1rkglVLY219tLkL-9" value="Indirizzo" style="ellipse;whiteSpace=wrap;html=1;align=center;" parent="1" vertex="1">
          <mxGeometry x="-240" y="160" width="100" height="40" as="geometry" />
        </mxCell>
        <mxCell id="eODNS1rkglVLY219tLkL-12" value="Dipendente" style="whiteSpace=wrap;html=1;align=center;" parent="1" vertex="1">
          <mxGeometry x="139.58" y="600" width="100" height="40" as="geometry" />
        </mxCell>
        <mxCell id="eODNS1rkglVLY219tLkL-13" value="Operatore" style="whiteSpace=wrap;html=1;align=center;" parent="1" vertex="1">
          <mxGeometry x="60" y="730" width="100" height="40" as="geometry" />
        </mxCell>
        <mxCell id="eODNS1rkglVLY219tLkL-14" value="Amministrativo" style="whiteSpace=wrap;html=1;align=center;" parent="1" vertex="1">
          <mxGeometry x="220.00000000000003" y="730" width="100" height="40" as="geometry" />
        </mxCell>
        <mxCell id="eODNS1rkglVLY219tLkL-19" value="" style="endArrow=none;html=1;rounded=0;exitX=0;exitY=0.5;exitDx=0;exitDy=0;entryX=1;entryY=0.5;entryDx=0;entryDy=0;" parent="1" source="eODNS1rkglVLY219tLkL-3" target="eODNS1rkglVLY219tLkL-1" edge="1">
          <mxGeometry width="50" height="50" relative="1" as="geometry">
            <mxPoint x="260" y="249.58" as="sourcePoint" />
            <mxPoint x="220" y="250" as="targetPoint" />
          </mxGeometry>
        </mxCell>
        <mxCell id="eODNS1rkglVLY219tLkL-22" value="" style="endArrow=none;html=1;rounded=0;exitX=0;exitY=0.5;exitDx=0;exitDy=0;entryX=1;entryY=0.5;entryDx=0;entryDy=0;" parent="1" source="eODNS1rkglVLY219tLkL-5" target="eODNS1rkglVLY219tLkL-7" edge="1">
          <mxGeometry width="50" height="50" relative="1" as="geometry">
            <mxPoint x="190" y="410" as="sourcePoint" />
            <mxPoint x="140" y="410" as="targetPoint" />
          </mxGeometry>
        </mxCell>
        <mxCell id="eODNS1rkglVLY219tLkL-25" value="" style="endArrow=none;html=1;rounded=0;exitX=0;exitY=0;exitDx=0;exitDy=0;entryX=0.5;entryY=1;entryDx=0;entryDy=0;" parent="1" source="eODNS1rkglVLY219tLkL-1" target="eODNS1rkglVLY219tLkL-9" edge="1">
          <mxGeometry width="50" height="50" relative="1" as="geometry">
            <mxPoint x="220" y="320" as="sourcePoint" />
            <mxPoint x="220" y="280" as="targetPoint" />
          </mxGeometry>
        </mxCell>
        <mxCell id="eODNS1rkglVLY219tLkL-27" value="" style="shape=flexArrow;endArrow=classic;html=1;rounded=0;entryX=0.5;entryY=1;entryDx=0;entryDy=0;fillColor=#000000;fillStyle=solid;gradientColor=none;strokeColor=default;" parent="1" target="eODNS1rkglVLY219tLkL-12" edge="1">
          <mxGeometry width="50" height="50" relative="1" as="geometry">
            <mxPoint x="189.58" y="690" as="sourcePoint" />
            <mxPoint x="169.58" y="520" as="targetPoint" />
            <Array as="points">
              <mxPoint x="189.58" y="680" />
            </Array>
          </mxGeometry>
        </mxCell>
        <mxCell id="eODNS1rkglVLY219tLkL-28" value="" style="endArrow=none;html=1;rounded=0;" parent="1" edge="1">
          <mxGeometry width="50" height="50" relative="1" as="geometry">
            <mxPoint x="109.57999999999998" y="690" as="sourcePoint" />
            <mxPoint x="269.58000000000004" y="690" as="targetPoint" />
          </mxGeometry>
        </mxCell>
        <mxCell id="eODNS1rkglVLY219tLkL-30" value="" style="endArrow=none;html=1;rounded=0;entryX=0.5;entryY=0;entryDx=0;entryDy=0;" parent="1" edge="1">
          <mxGeometry width="50" height="50" relative="1" as="geometry">
            <mxPoint x="109.57999999999998" y="690" as="sourcePoint" />
            <mxPoint x="109.57999999999998" y="730" as="targetPoint" />
          </mxGeometry>
        </mxCell>
        <mxCell id="eODNS1rkglVLY219tLkL-31" value="" style="endArrow=none;html=1;rounded=0;entryX=0.5;entryY=0;entryDx=0;entryDy=0;" parent="1" edge="1">
          <mxGeometry width="50" height="50" relative="1" as="geometry">
            <mxPoint x="269.58000000000004" y="690" as="sourcePoint" />
            <mxPoint x="269.58000000000004" y="730" as="targetPoint" />
          </mxGeometry>
        </mxCell>
        <mxCell id="eODNS1rkglVLY219tLkL-32" value="Lavora" style="rhombus;whiteSpace=wrap;html=1;" parent="1" vertex="1">
          <mxGeometry x="150.00000000000003" y="470" width="80" height="80" as="geometry" />
        </mxCell>
        <mxCell id="eODNS1rkglVLY219tLkL-33" value="" style="endArrow=none;html=1;rounded=0;exitX=0.5;exitY=0;exitDx=0;exitDy=0;entryX=0.5;entryY=1;entryDx=0;entryDy=0;" parent="1" source="eODNS1rkglVLY219tLkL-12" target="eODNS1rkglVLY219tLkL-32" edge="1">
          <mxGeometry width="50" height="50" relative="1" as="geometry">
            <mxPoint x="200.00000000000003" y="410" as="sourcePoint" />
            <mxPoint x="200.00000000000003" y="370" as="targetPoint" />
          </mxGeometry>
        </mxCell>
        <mxCell id="eODNS1rkglVLY219tLkL-35" value="Stazione" style="whiteSpace=wrap;html=1;align=center;" parent="1" vertex="1">
          <mxGeometry x="360" y="720" width="100" height="40" as="geometry" />
        </mxCell>
        <mxCell id="eODNS1rkglVLY219tLkL-36" value="Fermata" style="shape=rhombus;perimeter=rhombusPerimeter;whiteSpace=wrap;html=1;align=center;" parent="1" vertex="1">
          <mxGeometry x="350" y="600" width="120" height="60" as="geometry" />
        </mxCell>
        <mxCell id="eODNS1rkglVLY219tLkL-37" value="" style="endArrow=none;html=1;rounded=0;exitX=0.5;exitY=0;exitDx=0;exitDy=0;entryX=0.5;entryY=1;entryDx=0;entryDy=0;" parent="1" source="eODNS1rkglVLY219tLkL-36" target="eODNS1rkglVLY219tLkL-8" edge="1">
          <mxGeometry width="50" height="50" relative="1" as="geometry">
            <mxPoint x="740" y="580" as="sourcePoint" />
            <mxPoint x="740" y="540" as="targetPoint" />
          </mxGeometry>
        </mxCell>
        <mxCell id="eODNS1rkglVLY219tLkL-38" value="" style="endArrow=none;html=1;rounded=0;exitX=0.5;exitY=0;exitDx=0;exitDy=0;entryX=0.5;entryY=1;entryDx=0;entryDy=0;" parent="1" source="eODNS1rkglVLY219tLkL-35" target="eODNS1rkglVLY219tLkL-36" edge="1">
          <mxGeometry width="50" height="50" relative="1" as="geometry">
            <mxPoint x="420" y="630" as="sourcePoint" />
            <mxPoint x="420" y="590" as="targetPoint" />
          </mxGeometry>
        </mxCell>
        <mxCell id="eODNS1rkglVLY219tLkL-45" value="Persona Fisica" style="whiteSpace=wrap;html=1;align=center;" parent="1" vertex="1">
          <mxGeometry x="-240" y="360" width="100" height="40" as="geometry" />
        </mxCell>
        <mxCell id="eODNS1rkglVLY219tLkL-46" value="Soggetto Giuridico" style="whiteSpace=wrap;html=1;align=center;" parent="1" vertex="1">
          <mxGeometry x="-80" y="360" width="100" height="40" as="geometry" />
        </mxCell>
        <mxCell id="eODNS1rkglVLY219tLkL-47" value="" style="shape=flexArrow;endArrow=classic;html=1;rounded=0;entryX=0.5;entryY=1;entryDx=0;entryDy=0;fillColor=#000000;fillStyle=solid;gradientColor=none;strokeColor=default;" parent="1" edge="1">
          <mxGeometry width="50" height="50" relative="1" as="geometry">
            <mxPoint x="-110.42000000000002" y="320" as="sourcePoint" />
            <mxPoint x="-110" y="270" as="targetPoint" />
            <Array as="points">
              <mxPoint x="-110.42000000000002" y="310" />
            </Array>
          </mxGeometry>
        </mxCell>
        <mxCell id="eODNS1rkglVLY219tLkL-48" value="" style="endArrow=none;html=1;rounded=0;" parent="1" edge="1">
          <mxGeometry width="50" height="50" relative="1" as="geometry">
            <mxPoint x="-190.42000000000002" y="320" as="sourcePoint" />
            <mxPoint x="-30.41999999999996" y="320" as="targetPoint" />
          </mxGeometry>
        </mxCell>
        <mxCell id="eODNS1rkglVLY219tLkL-49" value="" style="endArrow=none;html=1;rounded=0;entryX=0.5;entryY=0;entryDx=0;entryDy=0;" parent="1" edge="1">
          <mxGeometry width="50" height="50" relative="1" as="geometry">
            <mxPoint x="-190.42000000000002" y="320" as="sourcePoint" />
            <mxPoint x="-190.42000000000002" y="360" as="targetPoint" />
          </mxGeometry>
        </mxCell>
        <mxCell id="eODNS1rkglVLY219tLkL-50" value="" style="endArrow=none;html=1;rounded=0;entryX=0.5;entryY=0;entryDx=0;entryDy=0;" parent="1" edge="1">
          <mxGeometry width="50" height="50" relative="1" as="geometry">
            <mxPoint x="-30.41999999999996" y="320" as="sourcePoint" />
            <mxPoint x="-30.41999999999996" y="360" as="targetPoint" />
          </mxGeometry>
        </mxCell>
        <mxCell id="eODNS1rkglVLY219tLkL-53" value="Biglietto" style="rounded=0;whiteSpace=wrap;html=1;" parent="1" vertex="1">
          <mxGeometry x="359.99999999999994" y="200" width="100" height="40" as="geometry" />
        </mxCell>
        <mxCell id="eODNS1rkglVLY219tLkL-56" value="" style="endArrow=none;html=1;rounded=0;exitX=0;exitY=0.5;exitDx=0;exitDy=0;entryX=1;entryY=0.5;entryDx=0;entryDy=0;" parent="1" source="eODNS1rkglVLY219tLkL-8" target="eODNS1rkglVLY219tLkL-32" edge="1">
          <mxGeometry width="50" height="50" relative="1" as="geometry">
            <mxPoint x="540" y="410" as="sourcePoint" />
            <mxPoint x="480" y="410" as="targetPoint" />
          </mxGeometry>
        </mxCell>
        <mxCell id="eODNS1rkglVLY219tLkL-57" value="" style="html=1;verticalAlign=bottom;labelBackgroundColor=none;startArrow=oval;startFill=0;startSize=8;endArrow=none;rounded=0;entryX=0;entryY=0.75;entryDx=0;entryDy=0;" parent="1" target="eODNS1rkglVLY219tLkL-1" edge="1">
          <mxGeometry x="-1" y="3" relative="1" as="geometry">
            <mxPoint x="-220" y="260" as="sourcePoint" />
            <mxPoint x="-180" y="260" as="targetPoint" />
            <Array as="points" />
          </mxGeometry>
        </mxCell>
        <mxCell id="eODNS1rkglVLY219tLkL-58" value="Nome" style="edgeLabel;html=1;align=center;verticalAlign=middle;resizable=0;points=[];" parent="eODNS1rkglVLY219tLkL-57" vertex="1" connectable="0">
          <mxGeometry x="-0.25" y="-2" relative="1" as="geometry">
            <mxPoint x="-52" y="-2" as="offset" />
          </mxGeometry>
        </mxCell>
        <mxCell id="eODNS1rkglVLY219tLkL-59" value="" style="html=1;verticalAlign=bottom;labelBackgroundColor=none;startArrow=oval;startFill=0;startSize=8;endArrow=none;rounded=0;entryX=0;entryY=0.25;entryDx=0;entryDy=0;" parent="1" target="eODNS1rkglVLY219tLkL-1" edge="1">
          <mxGeometry x="-1" y="3" relative="1" as="geometry">
            <mxPoint x="-220" y="240" as="sourcePoint" />
            <mxPoint x="-150" y="270" as="targetPoint" />
            <Array as="points" />
          </mxGeometry>
        </mxCell>
        <mxCell id="eODNS1rkglVLY219tLkL-60" value="Cognome" style="edgeLabel;html=1;align=center;verticalAlign=middle;resizable=0;points=[];" parent="eODNS1rkglVLY219tLkL-59" vertex="1" connectable="0">
          <mxGeometry x="-0.25" y="-2" relative="1" as="geometry">
            <mxPoint x="-52" y="-2" as="offset" />
          </mxGeometry>
        </mxCell>
        <mxCell id="eODNS1rkglVLY219tLkL-61" value="" style="html=1;verticalAlign=bottom;labelBackgroundColor=none;startArrow=oval;startFill=1;startSize=8;endArrow=none;rounded=0;entryX=0.25;entryY=0;entryDx=0;entryDy=0;" parent="1" target="eODNS1rkglVLY219tLkL-1" edge="1">
          <mxGeometry x="-1" y="3" relative="1" as="geometry">
            <mxPoint x="-135" y="150" as="sourcePoint" />
            <mxPoint x="-150" y="250" as="targetPoint" />
            <Array as="points" />
          </mxGeometry>
        </mxCell>
        <mxCell id="eODNS1rkglVLY219tLkL-62" value="ID" style="edgeLabel;html=1;align=center;verticalAlign=middle;resizable=0;points=[];" parent="eODNS1rkglVLY219tLkL-61" vertex="1" connectable="0">
          <mxGeometry x="-0.25" y="-2" relative="1" as="geometry">
            <mxPoint x="2" y="-44" as="offset" />
          </mxGeometry>
        </mxCell>
        <mxCell id="eODNS1rkglVLY219tLkL-63" value="" style="html=1;verticalAlign=bottom;labelBackgroundColor=none;startArrow=oval;startFill=0;startSize=8;endArrow=none;rounded=0;entryX=0.5;entryY=0;entryDx=0;entryDy=0;" parent="1" target="eODNS1rkglVLY219tLkL-1" edge="1">
          <mxGeometry x="-1" y="3" relative="1" as="geometry">
            <mxPoint x="-110" y="170" as="sourcePoint" />
            <mxPoint x="-150" y="250" as="targetPoint" />
            <Array as="points" />
          </mxGeometry>
        </mxCell>
        <mxCell id="eODNS1rkglVLY219tLkL-64" value="Data Nascita" style="edgeLabel;html=1;align=center;verticalAlign=middle;resizable=0;points=[];" parent="eODNS1rkglVLY219tLkL-63" vertex="1" connectable="0">
          <mxGeometry x="-0.25" y="-2" relative="1" as="geometry">
            <mxPoint x="18" y="-36" as="offset" />
          </mxGeometry>
        </mxCell>
        <mxCell id="eODNS1rkglVLY219tLkL-65" value="" style="html=1;verticalAlign=bottom;labelBackgroundColor=none;startArrow=oval;startFill=0;startSize=8;endArrow=none;rounded=0;entryX=0;entryY=1;entryDx=0;entryDy=0;" parent="1" target="eODNS1rkglVLY219tLkL-9" edge="1">
          <mxGeometry x="-1" y="3" relative="1" as="geometry">
            <mxPoint x="-290" y="194" as="sourcePoint" />
            <mxPoint x="-150" y="250" as="targetPoint" />
            <Array as="points" />
          </mxGeometry>
        </mxCell>
        <mxCell id="eODNS1rkglVLY219tLkL-66" value="Via" style="edgeLabel;html=1;align=center;verticalAlign=middle;resizable=0;points=[];" parent="eODNS1rkglVLY219tLkL-65" vertex="1" connectable="0">
          <mxGeometry x="-0.25" y="-2" relative="1" as="geometry">
            <mxPoint x="-47" y="-1" as="offset" />
          </mxGeometry>
        </mxCell>
        <mxCell id="eODNS1rkglVLY219tLkL-67" value="" style="html=1;verticalAlign=bottom;labelBackgroundColor=none;startArrow=oval;startFill=0;startSize=8;endArrow=none;rounded=0;entryX=0;entryY=0.5;entryDx=0;entryDy=0;" parent="1" target="eODNS1rkglVLY219tLkL-9" edge="1">
          <mxGeometry x="-1" y="3" relative="1" as="geometry">
            <mxPoint x="-290" y="180" as="sourcePoint" />
            <mxPoint x="-230.42000000000002" y="170" as="targetPoint" />
            <Array as="points" />
          </mxGeometry>
        </mxCell>
        <mxCell id="eODNS1rkglVLY219tLkL-68" value="Civico" style="edgeLabel;html=1;align=center;verticalAlign=middle;resizable=0;points=[];" parent="eODNS1rkglVLY219tLkL-67" vertex="1" connectable="0">
          <mxGeometry x="-0.25" y="-2" relative="1" as="geometry">
            <mxPoint x="-49" y="-2" as="offset" />
          </mxGeometry>
        </mxCell>
        <mxCell id="eODNS1rkglVLY219tLkL-69" value="" style="html=1;verticalAlign=bottom;labelBackgroundColor=none;startArrow=oval;startFill=0;startSize=8;endArrow=none;rounded=0;" parent="1" target="eODNS1rkglVLY219tLkL-9" edge="1">
          <mxGeometry x="-1" y="3" relative="1" as="geometry">
            <mxPoint x="-260" y="130" as="sourcePoint" />
            <mxPoint x="-220" y="130" as="targetPoint" />
            <Array as="points" />
          </mxGeometry>
        </mxCell>
        <mxCell id="eODNS1rkglVLY219tLkL-70" value="Citta" style="edgeLabel;html=1;align=center;verticalAlign=middle;resizable=0;points=[];" parent="eODNS1rkglVLY219tLkL-69" vertex="1" connectable="0">
          <mxGeometry x="-0.25" y="-2" relative="1" as="geometry">
            <mxPoint x="-46" y="-16" as="offset" />
          </mxGeometry>
        </mxCell>
        <mxCell id="eODNS1rkglVLY219tLkL-71" value="" style="html=1;verticalAlign=bottom;labelBackgroundColor=none;startArrow=oval;startFill=0;startSize=8;endArrow=none;rounded=0;entryX=0;entryY=0;entryDx=0;entryDy=0;" parent="1" target="eODNS1rkglVLY219tLkL-9" edge="1">
          <mxGeometry x="-1" y="3" relative="1" as="geometry">
            <mxPoint x="-290" y="166" as="sourcePoint" />
            <mxPoint x="-230" y="190" as="targetPoint" />
            <Array as="points" />
          </mxGeometry>
        </mxCell>
        <mxCell id="eODNS1rkglVLY219tLkL-72" value="Cap" style="edgeLabel;html=1;align=center;verticalAlign=middle;resizable=0;points=[];" parent="eODNS1rkglVLY219tLkL-71" vertex="1" connectable="0">
          <mxGeometry x="-0.25" y="-2" relative="1" as="geometry">
            <mxPoint x="-49" y="-2" as="offset" />
          </mxGeometry>
        </mxCell>
        <mxCell id="eODNS1rkglVLY219tLkL-73" value="" style="html=1;verticalAlign=bottom;labelBackgroundColor=none;startArrow=oval;startFill=1;startSize=8;endArrow=none;rounded=0;entryX=0;entryY=0.5;entryDx=0;entryDy=0;" parent="1" target="eODNS1rkglVLY219tLkL-45" edge="1">
          <mxGeometry x="-1" y="3" relative="1" as="geometry">
            <mxPoint x="-260" y="380" as="sourcePoint" />
            <mxPoint x="-150" y="270" as="targetPoint" />
            <Array as="points" />
          </mxGeometry>
        </mxCell>
        <mxCell id="eODNS1rkglVLY219tLkL-74" value="Codice&lt;div&gt;Fiscale&lt;/div&gt;" style="edgeLabel;html=1;align=center;verticalAlign=middle;resizable=0;points=[];" parent="eODNS1rkglVLY219tLkL-73" vertex="1" connectable="0">
          <mxGeometry x="-0.25" y="-2" relative="1" as="geometry">
            <mxPoint x="-33" y="-3" as="offset" />
          </mxGeometry>
        </mxCell>
        <mxCell id="eODNS1rkglVLY219tLkL-75" value="" style="html=1;verticalAlign=bottom;labelBackgroundColor=none;startArrow=oval;startFill=0;startSize=8;endArrow=none;rounded=0;entryX=0.75;entryY=0;entryDx=0;entryDy=0;" parent="1" target="eODNS1rkglVLY219tLkL-1" edge="1">
          <mxGeometry x="-1" y="3" relative="1" as="geometry">
            <mxPoint x="-85" y="200" as="sourcePoint" />
            <mxPoint x="-100" y="240" as="targetPoint" />
            <Array as="points" />
          </mxGeometry>
        </mxCell>
        <mxCell id="eODNS1rkglVLY219tLkL-76" value="Email" style="edgeLabel;html=1;align=center;verticalAlign=middle;resizable=0;points=[];" parent="eODNS1rkglVLY219tLkL-75" vertex="1" connectable="0">
          <mxGeometry x="-0.25" y="-2" relative="1" as="geometry">
            <mxPoint x="5" y="-28" as="offset" />
          </mxGeometry>
        </mxCell>
        <mxCell id="eODNS1rkglVLY219tLkL-77" value="" style="html=1;verticalAlign=bottom;labelBackgroundColor=none;startArrow=oval;startFill=0;startSize=8;endArrow=none;rounded=0;entryX=1;entryY=0;entryDx=0;entryDy=0;" parent="1" target="eODNS1rkglVLY219tLkL-1" edge="1">
          <mxGeometry x="-1" y="3" relative="1" as="geometry">
            <mxPoint x="-50" y="200" as="sourcePoint" />
            <mxPoint x="-75" y="240" as="targetPoint" />
            <Array as="points" />
          </mxGeometry>
        </mxCell>
        <mxCell id="eODNS1rkglVLY219tLkL-78" value="Telefono" style="edgeLabel;html=1;align=center;verticalAlign=middle;resizable=0;points=[];" parent="eODNS1rkglVLY219tLkL-77" vertex="1" connectable="0">
          <mxGeometry x="-0.25" y="-2" relative="1" as="geometry">
            <mxPoint x="26" y="-26" as="offset" />
          </mxGeometry>
        </mxCell>
        <mxCell id="eODNS1rkglVLY219tLkL-79" value="" style="html=1;verticalAlign=bottom;labelBackgroundColor=none;startArrow=oval;startFill=1;startSize=8;endArrow=none;rounded=0;entryX=0.25;entryY=0;entryDx=0;entryDy=0;" parent="1" edge="1">
          <mxGeometry x="-1" y="3" relative="1" as="geometry">
            <mxPoint x="372.99999999999994" y="160" as="sourcePoint" />
            <mxPoint x="372.99999999999994" y="200" as="targetPoint" />
            <Array as="points" />
          </mxGeometry>
        </mxCell>
        <mxCell id="eODNS1rkglVLY219tLkL-80" value="Codice" style="edgeLabel;html=1;align=center;verticalAlign=middle;resizable=0;points=[];" parent="eODNS1rkglVLY219tLkL-79" vertex="1" connectable="0">
          <mxGeometry x="-0.25" y="-2" relative="1" as="geometry">
            <mxPoint x="-4" y="-31" as="offset" />
          </mxGeometry>
        </mxCell>
        <mxCell id="eODNS1rkglVLY219tLkL-81" value="" style="html=1;verticalAlign=bottom;labelBackgroundColor=none;startArrow=oval;startFill=0;startSize=8;endArrow=none;rounded=0;entryX=1;entryY=0.5;entryDx=0;entryDy=0;" parent="1" edge="1">
          <mxGeometry x="-1" y="3" relative="1" as="geometry">
            <mxPoint x="190" y="156" as="sourcePoint" />
            <mxPoint x="146.18" y="155.58" as="targetPoint" />
            <Array as="points" />
          </mxGeometry>
        </mxCell>
        <mxCell id="eODNS1rkglVLY219tLkL-82" value="Data&amp;nbsp;&lt;span style=&quot;background-color: light-dark(#ffffff, var(--ge-dark-color, #121212)); color: light-dark(rgb(0, 0, 0), rgb(255, 255, 255));&quot;&gt;Prenotazione&lt;/span&gt;" style="edgeLabel;html=1;align=center;verticalAlign=middle;resizable=0;points=[];" parent="eODNS1rkglVLY219tLkL-81" vertex="1" connectable="0">
          <mxGeometry x="-0.25" y="-2" relative="1" as="geometry">
            <mxPoint x="72" y="2" as="offset" />
          </mxGeometry>
        </mxCell>
        <mxCell id="eODNS1rkglVLY219tLkL-85" value="" style="html=1;verticalAlign=bottom;labelBackgroundColor=none;startArrow=oval;startFill=0;startSize=8;endArrow=none;rounded=0;entryX=0.75;entryY=0;entryDx=0;entryDy=0;" parent="1" edge="1">
          <mxGeometry x="-1" y="3" relative="1" as="geometry">
            <mxPoint x="393.99999999999994" y="140" as="sourcePoint" />
            <mxPoint x="393.99999999999994" y="200" as="targetPoint" />
            <Array as="points" />
          </mxGeometry>
        </mxCell>
        <mxCell id="eODNS1rkglVLY219tLkL-86" value="Validato" style="edgeLabel;html=1;align=center;verticalAlign=middle;resizable=0;points=[];" parent="eODNS1rkglVLY219tLkL-85" vertex="1" connectable="0">
          <mxGeometry x="-0.25" y="-2" relative="1" as="geometry">
            <mxPoint x="5" y="-36" as="offset" />
          </mxGeometry>
        </mxCell>
        <mxCell id="eODNS1rkglVLY219tLkL-87" value="" style="html=1;verticalAlign=bottom;labelBackgroundColor=none;startArrow=oval;startFill=0;startSize=8;endArrow=none;rounded=0;entryX=0.75;entryY=0;entryDx=0;entryDy=0;" parent="1" edge="1">
          <mxGeometry x="-1" y="3" relative="1" as="geometry">
            <mxPoint x="442" y="150" as="sourcePoint" />
            <mxPoint x="442" y="200" as="targetPoint" />
            <Array as="points" />
          </mxGeometry>
        </mxCell>
        <mxCell id="eODNS1rkglVLY219tLkL-88" value="Data&lt;div&gt;Validazione&lt;/div&gt;" style="edgeLabel;html=1;align=center;verticalAlign=middle;resizable=0;points=[];" parent="eODNS1rkglVLY219tLkL-87" vertex="1" connectable="0">
          <mxGeometry x="-0.25" y="-2" relative="1" as="geometry">
            <mxPoint x="10" y="-40" as="offset" />
          </mxGeometry>
        </mxCell>
        <mxCell id="eODNS1rkglVLY219tLkL-97" value="" style="html=1;verticalAlign=bottom;labelBackgroundColor=none;startArrow=oval;startFill=1;startSize=8;endArrow=none;rounded=0;entryX=0.75;entryY=0;entryDx=0;entryDy=0;" parent="1" edge="1">
          <mxGeometry x="-1" y="3" relative="1" as="geometry">
            <mxPoint x="788.42" y="360" as="sourcePoint" />
            <mxPoint x="788.42" y="400" as="targetPoint" />
            <Array as="points" />
          </mxGeometry>
        </mxCell>
        <mxCell id="eODNS1rkglVLY219tLkL-98" value="Matricola" style="edgeLabel;html=1;align=center;verticalAlign=middle;resizable=0;points=[];" parent="eODNS1rkglVLY219tLkL-97" vertex="1" connectable="0">
          <mxGeometry x="-0.25" y="-2" relative="1" as="geometry">
            <mxPoint x="1" y="-28" as="offset" />
          </mxGeometry>
        </mxCell>
        <mxCell id="eODNS1rkglVLY219tLkL-99" value="" style="html=1;verticalAlign=bottom;labelBackgroundColor=none;startArrow=oval;startFill=0;startSize=8;endArrow=none;rounded=0;entryX=1;entryY=0;entryDx=0;entryDy=0;" parent="1" target="eODNS1rkglVLY219tLkL-5" edge="1">
          <mxGeometry x="-1" y="3" relative="1" as="geometry">
            <mxPoint x="840.42" y="360" as="sourcePoint" />
            <mxPoint x="820.42" y="190" as="targetPoint" />
            <Array as="points" />
          </mxGeometry>
        </mxCell>
        <mxCell id="eODNS1rkglVLY219tLkL-100" value="Tipologia" style="edgeLabel;html=1;align=center;verticalAlign=middle;resizable=0;points=[];" parent="eODNS1rkglVLY219tLkL-99" vertex="1" connectable="0">
          <mxGeometry x="-0.25" y="-2" relative="1" as="geometry">
            <mxPoint x="23" y="-33" as="offset" />
          </mxGeometry>
        </mxCell>
        <mxCell id="eODNS1rkglVLY219tLkL-101" value="" style="html=1;verticalAlign=bottom;labelBackgroundColor=none;startArrow=oval;startFill=0;startSize=8;endArrow=none;rounded=0;entryX=1;entryY=0.5;entryDx=0;entryDy=0;" parent="1" edge="1">
          <mxGeometry x="-1" y="3" relative="1" as="geometry">
            <mxPoint x="860.42" y="419.58" as="sourcePoint" />
            <mxPoint x="810.42" y="419.58" as="targetPoint" />
            <Array as="points" />
          </mxGeometry>
        </mxCell>
        <mxCell id="eODNS1rkglVLY219tLkL-102" value="Numero Carrozze" style="edgeLabel;html=1;align=center;verticalAlign=middle;resizable=0;points=[];" parent="eODNS1rkglVLY219tLkL-101" vertex="1" connectable="0">
          <mxGeometry x="-0.25" y="-2" relative="1" as="geometry">
            <mxPoint x="22" y="-16" as="offset" />
          </mxGeometry>
        </mxCell>
        <mxCell id="eODNS1rkglVLY219tLkL-103" value="" style="html=1;verticalAlign=bottom;labelBackgroundColor=none;startArrow=oval;startFill=0;startSize=8;endArrow=none;rounded=0;entryX=1;entryY=1;entryDx=0;entryDy=0;" parent="1" target="eODNS1rkglVLY219tLkL-5" edge="1">
          <mxGeometry x="-1" y="3" relative="1" as="geometry">
            <mxPoint x="870.42" y="460" as="sourcePoint" />
            <mxPoint x="820.42" y="429.58" as="targetPoint" />
            <Array as="points" />
          </mxGeometry>
        </mxCell>
        <mxCell id="eODNS1rkglVLY219tLkL-104" value="Anno Costruzione" style="edgeLabel;html=1;align=center;verticalAlign=middle;resizable=0;points=[];" parent="eODNS1rkglVLY219tLkL-103" vertex="1" connectable="0">
          <mxGeometry x="-0.25" y="-2" relative="1" as="geometry">
            <mxPoint x="54" y="-7" as="offset" />
          </mxGeometry>
        </mxCell>
        <mxCell id="eODNS1rkglVLY219tLkL-105" value="" style="html=1;verticalAlign=bottom;labelBackgroundColor=none;startArrow=oval;startFill=0;startSize=8;endArrow=none;rounded=0;entryX=0;entryY=1;entryDx=0;entryDy=0;" parent="1" target="eODNS1rkglVLY219tLkL-1" edge="1">
          <mxGeometry x="-1" y="3" relative="1" as="geometry">
            <mxPoint x="-220" y="280" as="sourcePoint" />
            <mxPoint x="-150" y="270" as="targetPoint" />
            <Array as="points" />
          </mxGeometry>
        </mxCell>
        <mxCell id="eODNS1rkglVLY219tLkL-106" value="Sesso" style="edgeLabel;html=1;align=center;verticalAlign=middle;resizable=0;points=[];" parent="eODNS1rkglVLY219tLkL-105" vertex="1" connectable="0">
          <mxGeometry x="-0.25" y="-2" relative="1" as="geometry">
            <mxPoint x="-48" y="6" as="offset" />
          </mxGeometry>
        </mxCell>
        <mxCell id="eODNS1rkglVLY219tLkL-107" value="" style="html=1;verticalAlign=bottom;labelBackgroundColor=none;startArrow=oval;startFill=0;startSize=8;endArrow=none;rounded=0;entryX=0.75;entryY=1;entryDx=0;entryDy=0;" parent="1" edge="1">
          <mxGeometry x="-1" y="3" relative="1" as="geometry">
            <mxPoint x="801.42" y="480" as="sourcePoint" />
            <mxPoint x="801.42" y="440" as="targetPoint" />
            <Array as="points" />
          </mxGeometry>
        </mxCell>
        <mxCell id="eODNS1rkglVLY219tLkL-108" value="Alimentazione" style="edgeLabel;html=1;align=center;verticalAlign=middle;resizable=0;points=[];" parent="eODNS1rkglVLY219tLkL-107" vertex="1" connectable="0">
          <mxGeometry x="-0.25" y="-2" relative="1" as="geometry">
            <mxPoint x="13" y="32" as="offset" />
          </mxGeometry>
        </mxCell>
        <mxCell id="eODNS1rkglVLY219tLkL-109" value="" style="html=1;verticalAlign=bottom;labelBackgroundColor=none;startArrow=oval;startFill=0;startSize=8;endArrow=none;rounded=0;entryX=0.5;entryY=1;entryDx=0;entryDy=0;" parent="1" target="eODNS1rkglVLY219tLkL-5" edge="1">
          <mxGeometry x="-1" y="3" relative="1" as="geometry">
            <mxPoint x="760.42" y="460" as="sourcePoint" />
            <mxPoint x="809.42" y="450" as="targetPoint" />
            <Array as="points" />
          </mxGeometry>
        </mxCell>
        <mxCell id="eODNS1rkglVLY219tLkL-110" value="Capienza" style="edgeLabel;html=1;align=center;verticalAlign=middle;resizable=0;points=[];" parent="eODNS1rkglVLY219tLkL-109" vertex="1" connectable="0">
          <mxGeometry x="-0.25" y="-2" relative="1" as="geometry">
            <mxPoint x="-2" y="23" as="offset" />
          </mxGeometry>
        </mxCell>
        <mxCell id="eODNS1rkglVLY219tLkL-111" value="" style="html=1;verticalAlign=bottom;labelBackgroundColor=none;startArrow=oval;startFill=1;startSize=8;endArrow=none;rounded=0;entryX=0;entryY=0;entryDx=0;entryDy=0;" parent="1" target="eODNS1rkglVLY219tLkL-12" edge="1">
          <mxGeometry x="-1" y="3" relative="1" as="geometry">
            <mxPoint x="100" y="570" as="sourcePoint" />
            <mxPoint x="618" y="390" as="targetPoint" />
            <Array as="points" />
          </mxGeometry>
        </mxCell>
        <mxCell id="eODNS1rkglVLY219tLkL-112" value="Matricola" style="edgeLabel;html=1;align=center;verticalAlign=middle;resizable=0;points=[];" parent="eODNS1rkglVLY219tLkL-111" vertex="1" connectable="0">
          <mxGeometry x="-0.25" y="-2" relative="1" as="geometry">
            <mxPoint x="1" y="-28" as="offset" />
          </mxGeometry>
        </mxCell>
        <mxCell id="eODNS1rkglVLY219tLkL-113" value="" style="html=1;verticalAlign=bottom;labelBackgroundColor=none;startArrow=oval;startFill=0;startSize=8;endArrow=none;rounded=0;entryX=0;entryY=0.75;entryDx=0;entryDy=0;" parent="1" edge="1">
          <mxGeometry x="-1" y="3" relative="1" as="geometry">
            <mxPoint x="80" y="625" as="sourcePoint" />
            <mxPoint x="140.00000000000003" y="625" as="targetPoint" />
            <Array as="points" />
          </mxGeometry>
        </mxCell>
        <mxCell id="eODNS1rkglVLY219tLkL-114" value="Nome" style="edgeLabel;html=1;align=center;verticalAlign=middle;resizable=0;points=[];" parent="eODNS1rkglVLY219tLkL-113" vertex="1" connectable="0">
          <mxGeometry x="-0.25" y="-2" relative="1" as="geometry">
            <mxPoint x="-52" y="-2" as="offset" />
          </mxGeometry>
        </mxCell>
        <mxCell id="eODNS1rkglVLY219tLkL-115" value="" style="html=1;verticalAlign=bottom;labelBackgroundColor=none;startArrow=oval;startFill=0;startSize=8;endArrow=none;rounded=0;entryX=0;entryY=0.25;entryDx=0;entryDy=0;" parent="1" edge="1">
          <mxGeometry x="-1" y="3" relative="1" as="geometry">
            <mxPoint x="80" y="610" as="sourcePoint" />
            <mxPoint x="140.00000000000003" y="610" as="targetPoint" />
            <Array as="points" />
          </mxGeometry>
        </mxCell>
        <mxCell id="eODNS1rkglVLY219tLkL-116" value="Cognome" style="edgeLabel;html=1;align=center;verticalAlign=middle;resizable=0;points=[];" parent="eODNS1rkglVLY219tLkL-115" vertex="1" connectable="0">
          <mxGeometry x="-0.25" y="-2" relative="1" as="geometry">
            <mxPoint x="-60" y="-2" as="offset" />
          </mxGeometry>
        </mxCell>
        <mxCell id="eODNS1rkglVLY219tLkL-117" value="" style="html=1;verticalAlign=bottom;labelBackgroundColor=none;startArrow=oval;startFill=0;startSize=8;endArrow=none;rounded=0;entryX=0;entryY=1;entryDx=0;entryDy=0;" parent="1" edge="1">
          <mxGeometry x="-1" y="3" relative="1" as="geometry">
            <mxPoint x="80" y="638" as="sourcePoint" />
            <mxPoint x="140.00000000000003" y="638" as="targetPoint" />
            <Array as="points" />
          </mxGeometry>
        </mxCell>
        <mxCell id="eODNS1rkglVLY219tLkL-118" value="Sesso" style="edgeLabel;html=1;align=center;verticalAlign=middle;resizable=0;points=[];" parent="eODNS1rkglVLY219tLkL-117" vertex="1" connectable="0">
          <mxGeometry x="-0.25" y="-2" relative="1" as="geometry">
            <mxPoint x="-52" y="-3" as="offset" />
          </mxGeometry>
        </mxCell>
        <mxCell id="eODNS1rkglVLY219tLkL-119" value="" style="html=1;verticalAlign=bottom;labelBackgroundColor=none;startArrow=oval;startFill=0;startSize=8;endArrow=none;rounded=0;entryX=0.75;entryY=1;entryDx=0;entryDy=0;" parent="1" target="eODNS1rkglVLY219tLkL-14" edge="1">
          <mxGeometry x="-1" y="3" relative="1" as="geometry">
            <mxPoint x="295" y="820" as="sourcePoint" />
            <mxPoint x="150.00000000000003" y="650" as="targetPoint" />
            <Array as="points" />
          </mxGeometry>
        </mxCell>
        <mxCell id="eODNS1rkglVLY219tLkL-120" value="Ufficio" style="edgeLabel;html=1;align=center;verticalAlign=middle;resizable=0;points=[];" parent="eODNS1rkglVLY219tLkL-119" vertex="1" connectable="0">
          <mxGeometry x="-0.25" y="-2" relative="1" as="geometry">
            <mxPoint x="-7" y="39" as="offset" />
          </mxGeometry>
        </mxCell>
        <mxCell id="eODNS1rkglVLY219tLkL-127" value="" style="html=1;verticalAlign=bottom;labelBackgroundColor=none;startArrow=oval;startFill=0;startSize=8;endArrow=none;rounded=0;entryX=0.5;entryY=1;entryDx=0;entryDy=0;" parent="1" edge="1">
          <mxGeometry x="-1" y="3" relative="1" as="geometry">
            <mxPoint x="367.08000000000004" y="780" as="sourcePoint" />
            <mxPoint x="367.08000000000004" y="760" as="targetPoint" />
            <Array as="points" />
          </mxGeometry>
        </mxCell>
        <mxCell id="eODNS1rkglVLY219tLkL-128" value="Denominazione" style="edgeLabel;html=1;align=center;verticalAlign=middle;resizable=0;points=[];" parent="eODNS1rkglVLY219tLkL-127" vertex="1" connectable="0">
          <mxGeometry x="-0.25" y="-2" relative="1" as="geometry">
            <mxPoint x="-10" y="18" as="offset" />
          </mxGeometry>
        </mxCell>
        <mxCell id="eODNS1rkglVLY219tLkL-129" value="" style="html=1;verticalAlign=bottom;labelBackgroundColor=none;startArrow=oval;startFill=1;startSize=8;endArrow=none;rounded=0;entryX=1;entryY=0.25;entryDx=0;entryDy=0;" parent="1" target="eODNS1rkglVLY219tLkL-35" edge="1">
          <mxGeometry x="-1" y="3" relative="1" as="geometry">
            <mxPoint x="490" y="730" as="sourcePoint" />
            <mxPoint x="510" y="660" as="targetPoint" />
            <Array as="points" />
          </mxGeometry>
        </mxCell>
        <mxCell id="eODNS1rkglVLY219tLkL-130" value="Codice&amp;nbsp;&lt;div&gt;Stazione&lt;/div&gt;" style="edgeLabel;html=1;align=center;verticalAlign=middle;resizable=0;points=[];" parent="eODNS1rkglVLY219tLkL-129" vertex="1" connectable="0">
          <mxGeometry x="-0.25" y="-2" relative="1" as="geometry">
            <mxPoint x="41" y="2" as="offset" />
          </mxGeometry>
        </mxCell>
        <mxCell id="eODNS1rkglVLY219tLkL-131" value="" style="html=1;verticalAlign=bottom;labelBackgroundColor=none;startArrow=oval;startFill=0;startSize=8;endArrow=none;rounded=0;entryX=0.558;entryY=1.029;entryDx=0;entryDy=0;entryPerimeter=0;" parent="1" edge="1">
          <mxGeometry x="-1" y="3" relative="1" as="geometry">
            <mxPoint x="405" y="820" as="sourcePoint" />
            <mxPoint x="404.8000000000002" y="761.1600000000001" as="targetPoint" />
            <Array as="points" />
          </mxGeometry>
        </mxCell>
        <mxCell id="eODNS1rkglVLY219tLkL-132" value="Numero&lt;div&gt;Binari&lt;/div&gt;" style="edgeLabel;html=1;align=center;verticalAlign=middle;resizable=0;points=[];" parent="eODNS1rkglVLY219tLkL-131" vertex="1" connectable="0">
          <mxGeometry x="-0.25" y="-2" relative="1" as="geometry">
            <mxPoint x="-2" y="54" as="offset" />
          </mxGeometry>
        </mxCell>
        <mxCell id="eODNS1rkglVLY219tLkL-133" value="" style="html=1;verticalAlign=bottom;labelBackgroundColor=none;startArrow=oval;startFill=0;startSize=8;endArrow=none;rounded=0;entryX=0.825;entryY=1.008;entryDx=0;entryDy=0;entryPerimeter=0;" parent="1" edge="1">
          <mxGeometry x="-1" y="3" relative="1" as="geometry">
            <mxPoint x="437" y="800" as="sourcePoint" />
            <mxPoint x="436.5" y="760.3199999999999" as="targetPoint" />
            <Array as="points" />
          </mxGeometry>
        </mxCell>
        <mxCell id="eODNS1rkglVLY219tLkL-134" value="Capolinea" style="edgeLabel;html=1;align=center;verticalAlign=middle;resizable=0;points=[];" parent="eODNS1rkglVLY219tLkL-133" vertex="1" connectable="0">
          <mxGeometry x="-0.25" y="-2" relative="1" as="geometry">
            <mxPoint x="2" y="29" as="offset" />
          </mxGeometry>
        </mxCell>
        <mxCell id="eODNS1rkglVLY219tLkL-135" value="Indirizzo" style="ellipse;whiteSpace=wrap;html=1;align=center;" parent="1" vertex="1">
          <mxGeometry x="500" y="770" width="100" height="40" as="geometry" />
        </mxCell>
        <mxCell id="eODNS1rkglVLY219tLkL-138" value="" style="html=1;verticalAlign=bottom;labelBackgroundColor=none;startArrow=oval;startFill=0;startSize=8;endArrow=none;rounded=0;entryX=1;entryY=1;entryDx=0;entryDy=0;" parent="1" target="eODNS1rkglVLY219tLkL-135" edge="1">
          <mxGeometry x="-1" y="3" relative="1" as="geometry">
            <mxPoint x="650" y="804" as="sourcePoint" />
            <mxPoint x="584.58" y="805" as="targetPoint" />
            <Array as="points" />
          </mxGeometry>
        </mxCell>
        <mxCell id="eODNS1rkglVLY219tLkL-139" value="Civico" style="edgeLabel;html=1;align=center;verticalAlign=middle;resizable=0;points=[];" parent="eODNS1rkglVLY219tLkL-138" vertex="1" connectable="0">
          <mxGeometry x="-0.25" y="-2" relative="1" as="geometry">
            <mxPoint x="49" y="3" as="offset" />
          </mxGeometry>
        </mxCell>
        <mxCell id="eODNS1rkglVLY219tLkL-140" value="" style="html=1;verticalAlign=bottom;labelBackgroundColor=none;startArrow=oval;startFill=0;startSize=8;endArrow=none;rounded=0;entryX=1;entryY=0;entryDx=0;entryDy=0;" parent="1" target="eODNS1rkglVLY219tLkL-135" edge="1">
          <mxGeometry x="-1" y="3" relative="1" as="geometry">
            <mxPoint x="650" y="776" as="sourcePoint" />
            <mxPoint x="595" y="765" as="targetPoint" />
            <Array as="points" />
          </mxGeometry>
        </mxCell>
        <mxCell id="eODNS1rkglVLY219tLkL-141" value="Citta" style="edgeLabel;html=1;align=center;verticalAlign=middle;resizable=0;points=[];" parent="eODNS1rkglVLY219tLkL-140" vertex="1" connectable="0">
          <mxGeometry x="-0.25" y="-2" relative="1" as="geometry">
            <mxPoint x="45" y="1" as="offset" />
          </mxGeometry>
        </mxCell>
        <mxCell id="eODNS1rkglVLY219tLkL-142" value="" style="html=1;verticalAlign=bottom;labelBackgroundColor=none;startArrow=oval;startFill=0;startSize=8;endArrow=none;rounded=0;entryX=1;entryY=0.5;entryDx=0;entryDy=0;" parent="1" target="eODNS1rkglVLY219tLkL-135" edge="1">
          <mxGeometry x="-1" y="3" relative="1" as="geometry">
            <mxPoint x="650" y="790" as="sourcePoint" />
            <mxPoint x="585" y="825" as="targetPoint" />
            <Array as="points" />
          </mxGeometry>
        </mxCell>
        <mxCell id="eODNS1rkglVLY219tLkL-143" value="Cap" style="edgeLabel;html=1;align=center;verticalAlign=middle;resizable=0;points=[];" parent="eODNS1rkglVLY219tLkL-142" vertex="1" connectable="0">
          <mxGeometry x="-0.25" y="-2" relative="1" as="geometry">
            <mxPoint x="40" y="2" as="offset" />
          </mxGeometry>
        </mxCell>
        <mxCell id="eODNS1rkglVLY219tLkL-144" value="" style="endArrow=none;html=1;rounded=0;exitX=1;exitY=1;exitDx=0;exitDy=0;entryX=0;entryY=0.5;entryDx=0;entryDy=0;" parent="1" source="eODNS1rkglVLY219tLkL-35" target="eODNS1rkglVLY219tLkL-135" edge="1">
          <mxGeometry width="50" height="50" relative="1" as="geometry">
            <mxPoint x="420" y="730" as="sourcePoint" />
            <mxPoint x="420" y="690" as="targetPoint" />
          </mxGeometry>
        </mxCell>
        <mxCell id="eODNS1rkglVLY219tLkL-145" value="" style="html=1;verticalAlign=bottom;labelBackgroundColor=none;startArrow=oval;startFill=0;startSize=8;endArrow=none;rounded=0;entryX=0.367;entryY=0.029;entryDx=0;entryDy=0;entryPerimeter=0;" parent="1" target="eODNS1rkglVLY219tLkL-9" edge="1">
          <mxGeometry x="-1" y="3" relative="1" as="geometry">
            <mxPoint x="-210" y="110" as="sourcePoint" />
            <mxPoint x="-204" y="173" as="targetPoint" />
            <Array as="points" />
          </mxGeometry>
        </mxCell>
        <mxCell id="eODNS1rkglVLY219tLkL-146" value="Provincia" style="edgeLabel;html=1;align=center;verticalAlign=middle;resizable=0;points=[];" parent="eODNS1rkglVLY219tLkL-145" vertex="1" connectable="0">
          <mxGeometry x="-0.25" y="-2" relative="1" as="geometry">
            <mxPoint x="-11" y="-39" as="offset" />
          </mxGeometry>
        </mxCell>
        <mxCell id="eODNS1rkglVLY219tLkL-147" value="" style="html=1;verticalAlign=bottom;labelBackgroundColor=none;startArrow=oval;startFill=0;startSize=8;endArrow=none;rounded=0;entryX=0.575;entryY=-0.033;entryDx=0;entryDy=0;entryPerimeter=0;" parent="1" target="eODNS1rkglVLY219tLkL-9" edge="1">
          <mxGeometry x="-1" y="3" relative="1" as="geometry">
            <mxPoint x="-180" y="110" as="sourcePoint" />
            <mxPoint x="-193" y="171" as="targetPoint" />
            <Array as="points" />
          </mxGeometry>
        </mxCell>
        <mxCell id="eODNS1rkglVLY219tLkL-148" value="Comune" style="edgeLabel;html=1;align=center;verticalAlign=middle;resizable=0;points=[];" parent="eODNS1rkglVLY219tLkL-147" vertex="1" connectable="0">
          <mxGeometry x="-0.25" y="-2" relative="1" as="geometry">
            <mxPoint x="18" y="-37" as="offset" />
          </mxGeometry>
        </mxCell>
        <mxCell id="eODNS1rkglVLY219tLkL-149" value="" style="html=1;verticalAlign=bottom;labelBackgroundColor=none;startArrow=oval;startFill=0;startSize=8;endArrow=none;rounded=0;entryX=0.633;entryY=0.967;entryDx=0;entryDy=0;entryPerimeter=0;" parent="1" target="eODNS1rkglVLY219tLkL-135" edge="1">
          <mxGeometry x="-1" y="3" relative="1" as="geometry">
            <mxPoint x="650" y="820" as="sourcePoint" />
            <mxPoint x="595" y="814" as="targetPoint" />
            <Array as="points" />
          </mxGeometry>
        </mxCell>
        <mxCell id="eODNS1rkglVLY219tLkL-150" value="Comune" style="edgeLabel;html=1;align=center;verticalAlign=middle;resizable=0;points=[];" parent="eODNS1rkglVLY219tLkL-149" vertex="1" connectable="0">
          <mxGeometry x="-0.25" y="-2" relative="1" as="geometry">
            <mxPoint x="58" y="6" as="offset" />
          </mxGeometry>
        </mxCell>
        <mxCell id="eODNS1rkglVLY219tLkL-151" value="" style="html=1;verticalAlign=bottom;labelBackgroundColor=none;startArrow=oval;startFill=0;startSize=8;endArrow=none;rounded=0;entryX=0.5;entryY=1;entryDx=0;entryDy=0;" parent="1" target="eODNS1rkglVLY219tLkL-135" edge="1">
          <mxGeometry x="-1" y="3" relative="1" as="geometry">
            <mxPoint x="650" y="840" as="sourcePoint" />
            <mxPoint x="573" y="819" as="targetPoint" />
            <Array as="points" />
          </mxGeometry>
        </mxCell>
        <mxCell id="eODNS1rkglVLY219tLkL-152" value="Provincia" style="edgeLabel;html=1;align=center;verticalAlign=middle;resizable=0;points=[];" parent="eODNS1rkglVLY219tLkL-151" vertex="1" connectable="0">
          <mxGeometry x="-0.25" y="-2" relative="1" as="geometry">
            <mxPoint x="67" y="13" as="offset" />
          </mxGeometry>
        </mxCell>
        <mxCell id="eODNS1rkglVLY219tLkL-153" value="" style="html=1;verticalAlign=bottom;labelBackgroundColor=none;startArrow=oval;startFill=0;startSize=8;endArrow=none;rounded=0;entryX=0.5;entryY=1;entryDx=0;entryDy=0;" parent="1" target="eODNS1rkglVLY219tLkL-135" edge="1">
          <mxGeometry x="-1" y="3" relative="1" as="geometry">
            <mxPoint x="550" y="870" as="sourcePoint" />
            <mxPoint x="560" y="820" as="targetPoint" />
            <Array as="points" />
          </mxGeometry>
        </mxCell>
        <mxCell id="eODNS1rkglVLY219tLkL-154" value="Longitudine" style="edgeLabel;html=1;align=center;verticalAlign=middle;resizable=0;points=[];" parent="eODNS1rkglVLY219tLkL-153" vertex="1" connectable="0">
          <mxGeometry x="-0.25" y="-2" relative="1" as="geometry">
            <mxPoint x="7" y="38" as="offset" />
          </mxGeometry>
        </mxCell>
        <mxCell id="eODNS1rkglVLY219tLkL-155" value="" style="html=1;verticalAlign=bottom;labelBackgroundColor=none;startArrow=oval;startFill=0;startSize=8;endArrow=none;rounded=0;entryX=0;entryY=1;entryDx=0;entryDy=0;" parent="1" target="eODNS1rkglVLY219tLkL-135" edge="1">
          <mxGeometry x="-1" y="3" relative="1" as="geometry">
            <mxPoint x="515" y="850" as="sourcePoint" />
            <mxPoint x="560" y="820" as="targetPoint" />
            <Array as="points" />
          </mxGeometry>
        </mxCell>
        <mxCell id="eODNS1rkglVLY219tLkL-156" value="Latitudine" style="edgeLabel;html=1;align=center;verticalAlign=middle;resizable=0;points=[];" parent="eODNS1rkglVLY219tLkL-155" vertex="1" connectable="0">
          <mxGeometry x="-0.25" y="-2" relative="1" as="geometry">
            <mxPoint x="-5" y="32" as="offset" />
          </mxGeometry>
        </mxCell>
        <mxCell id="eODNS1rkglVLY219tLkL-157" value="" style="html=1;verticalAlign=bottom;labelBackgroundColor=none;startArrow=oval;startFill=0;startSize=8;endArrow=none;rounded=0;entryX=0.5;entryY=1;entryDx=0;entryDy=0;" parent="1" target="eODNS1rkglVLY219tLkL-13" edge="1">
          <mxGeometry x="-1" y="3" relative="1" as="geometry">
            <mxPoint x="110" y="820" as="sourcePoint" />
            <mxPoint x="305" y="780" as="targetPoint" />
            <Array as="points" />
          </mxGeometry>
        </mxCell>
        <mxCell id="eODNS1rkglVLY219tLkL-158" value="Tipologia" style="edgeLabel;html=1;align=center;verticalAlign=middle;resizable=0;points=[];" parent="eODNS1rkglVLY219tLkL-157" vertex="1" connectable="0">
          <mxGeometry x="-0.25" y="-2" relative="1" as="geometry">
            <mxPoint x="-4" y="35" as="offset" />
          </mxGeometry>
        </mxCell>
        <mxCell id="eODNS1rkglVLY219tLkL-159" value="" style="html=1;verticalAlign=bottom;labelBackgroundColor=none;startArrow=oval;startFill=0;startSize=8;endArrow=none;rounded=0;" parent="1" edge="1">
          <mxGeometry x="-1" y="3" relative="1" as="geometry">
            <mxPoint x="80" y="590" as="sourcePoint" />
            <mxPoint x="140" y="606" as="targetPoint" />
            <Array as="points" />
          </mxGeometry>
        </mxCell>
        <mxCell id="eODNS1rkglVLY219tLkL-160" value="Data Nascita" style="edgeLabel;html=1;align=center;verticalAlign=middle;resizable=0;points=[];" parent="eODNS1rkglVLY219tLkL-159" vertex="1" connectable="0">
          <mxGeometry x="-0.25" y="-2" relative="1" as="geometry">
            <mxPoint x="-64" y="-8" as="offset" />
          </mxGeometry>
        </mxCell>
        <mxCell id="eODNS1rkglVLY219tLkL-161" value="" style="html=1;verticalAlign=bottom;labelBackgroundColor=none;startArrow=oval;startFill=0;startSize=8;endArrow=none;rounded=0;" parent="1" edge="1">
          <mxGeometry x="-1" y="3" relative="1" as="geometry">
            <mxPoint x="230" y="570" as="sourcePoint" />
            <mxPoint x="230.00000000000003" y="600" as="targetPoint" />
            <Array as="points" />
          </mxGeometry>
        </mxCell>
        <mxCell id="eODNS1rkglVLY219tLkL-162" value="Data Assunzione" style="edgeLabel;html=1;align=center;verticalAlign=middle;resizable=0;points=[];" parent="eODNS1rkglVLY219tLkL-161" vertex="1" connectable="0">
          <mxGeometry x="-0.25" y="-2" relative="1" as="geometry">
            <mxPoint x="32" y="-25" as="offset" />
          </mxGeometry>
        </mxCell>
        <mxCell id="eODNS1rkglVLY219tLkL-163" value="" style="html=1;verticalAlign=bottom;labelBackgroundColor=none;startArrow=oval;startFill=0;startSize=8;endArrow=none;rounded=0;entryX=1;entryY=0.5;entryDx=0;entryDy=0;" parent="1" edge="1">
          <mxGeometry x="-1" y="3" relative="1" as="geometry">
            <mxPoint x="270" y="612" as="sourcePoint" />
            <mxPoint x="239.57999999999993" y="612" as="targetPoint" />
            <Array as="points" />
          </mxGeometry>
        </mxCell>
        <mxCell id="eODNS1rkglVLY219tLkL-164" value="Ruolo" style="edgeLabel;html=1;align=center;verticalAlign=middle;resizable=0;points=[];" parent="eODNS1rkglVLY219tLkL-163" vertex="1" connectable="0">
          <mxGeometry x="-0.25" y="-2" relative="1" as="geometry">
            <mxPoint x="41" y="2" as="offset" />
          </mxGeometry>
        </mxCell>
        <mxCell id="eODNS1rkglVLY219tLkL-165" value="" style="html=1;verticalAlign=bottom;labelBackgroundColor=none;startArrow=oval;startFill=1;startSize=8;endArrow=none;rounded=0;entryX=0.75;entryY=0;entryDx=0;entryDy=0;" parent="1" edge="1">
          <mxGeometry x="-1" y="3" relative="1" as="geometry">
            <mxPoint x="519" y="480" as="sourcePoint" />
            <mxPoint x="456" y="490" as="targetPoint" />
            <Array as="points">
              <mxPoint x="456" y="480" />
            </Array>
          </mxGeometry>
        </mxCell>
        <mxCell id="eODNS1rkglVLY219tLkL-166" value="Codice Tratta" style="edgeLabel;html=1;align=center;verticalAlign=middle;resizable=0;points=[];" parent="eODNS1rkglVLY219tLkL-165" vertex="1" connectable="0">
          <mxGeometry x="-0.25" y="-2" relative="1" as="geometry">
            <mxPoint x="69" as="offset" />
          </mxGeometry>
        </mxCell>
        <mxCell id="eODNS1rkglVLY219tLkL-167" value="" style="html=1;verticalAlign=bottom;labelBackgroundColor=none;startArrow=oval;startFill=0;startSize=8;endArrow=none;rounded=0;entryX=1;entryY=0.5;entryDx=0;entryDy=0;" parent="1" edge="1">
          <mxGeometry x="-1" y="3" relative="1" as="geometry">
            <mxPoint x="520" y="493" as="sourcePoint" />
            <mxPoint x="460" y="492.5" as="targetPoint" />
            <Array as="points" />
          </mxGeometry>
        </mxCell>
        <mxCell id="eODNS1rkglVLY219tLkL-168" value="Tipologia" style="edgeLabel;html=1;align=center;verticalAlign=middle;resizable=0;points=[];" parent="eODNS1rkglVLY219tLkL-167" vertex="1" connectable="0">
          <mxGeometry x="-0.25" y="-2" relative="1" as="geometry">
            <mxPoint x="52" y="1" as="offset" />
          </mxGeometry>
        </mxCell>
        <mxCell id="eODNS1rkglVLY219tLkL-169" value="" style="html=1;verticalAlign=bottom;labelBackgroundColor=none;startArrow=oval;startFill=0;startSize=8;endArrow=none;rounded=0;entryX=1;entryY=0.5;entryDx=0;entryDy=0;" parent="1" edge="1">
          <mxGeometry x="-1" y="3" relative="1" as="geometry">
            <mxPoint x="520" y="509" as="sourcePoint" />
            <mxPoint x="460" y="508.5" as="targetPoint" />
            <Array as="points" />
          </mxGeometry>
        </mxCell>
        <mxCell id="eODNS1rkglVLY219tLkL-170" value="Orario Partenza" style="edgeLabel;html=1;align=center;verticalAlign=middle;resizable=0;points=[];" parent="eODNS1rkglVLY219tLkL-169" vertex="1" connectable="0">
          <mxGeometry x="-0.25" y="-2" relative="1" as="geometry">
            <mxPoint x="70" y="2" as="offset" />
          </mxGeometry>
        </mxCell>
        <mxCell id="eODNS1rkglVLY219tLkL-171" value="" style="html=1;verticalAlign=bottom;labelBackgroundColor=none;startArrow=oval;startFill=0;startSize=8;endArrow=none;rounded=0;entryX=1;entryY=0.5;entryDx=0;entryDy=0;" parent="1" edge="1">
          <mxGeometry x="-1" y="3" relative="1" as="geometry">
            <mxPoint x="520" y="525" as="sourcePoint" />
            <mxPoint x="460" y="524.5" as="targetPoint" />
            <Array as="points" />
          </mxGeometry>
        </mxCell>
        <mxCell id="eODNS1rkglVLY219tLkL-172" value="Orario Arrivo" style="edgeLabel;html=1;align=center;verticalAlign=middle;resizable=0;points=[];" parent="eODNS1rkglVLY219tLkL-171" vertex="1" connectable="0">
          <mxGeometry x="-0.25" y="-2" relative="1" as="geometry">
            <mxPoint x="62" y="3" as="offset" />
          </mxGeometry>
        </mxCell>
        <mxCell id="eODNS1rkglVLY219tLkL-173" value="" style="html=1;verticalAlign=bottom;labelBackgroundColor=none;startArrow=oval;startFill=0;startSize=8;endArrow=none;rounded=0;entryX=1;entryY=1;entryDx=0;entryDy=0;" parent="1" target="eODNS1rkglVLY219tLkL-8" edge="1">
          <mxGeometry x="-1" y="3" relative="1" as="geometry">
            <mxPoint x="500" y="550" as="sourcePoint" />
            <mxPoint x="470" y="529.5" as="targetPoint" />
            <Array as="points">
              <mxPoint x="460" y="550" />
            </Array>
          </mxGeometry>
        </mxCell>
        <mxCell id="eODNS1rkglVLY219tLkL-174" value="Stazione Arrivo" style="edgeLabel;html=1;align=center;verticalAlign=middle;resizable=0;points=[];" parent="eODNS1rkglVLY219tLkL-173" vertex="1" connectable="0">
          <mxGeometry x="-0.25" y="-2" relative="1" as="geometry">
            <mxPoint x="68" y="2" as="offset" />
          </mxGeometry>
        </mxCell>
        <mxCell id="eODNS1rkglVLY219tLkL-175" value="" style="html=1;verticalAlign=bottom;labelBackgroundColor=none;startArrow=oval;startFill=0;startSize=8;endArrow=none;rounded=0;entryX=0.75;entryY=1;entryDx=0;entryDy=0;" parent="1" target="eODNS1rkglVLY219tLkL-8" edge="1">
          <mxGeometry x="-1" y="3" relative="1" as="geometry">
            <mxPoint x="500" y="570" as="sourcePoint" />
            <mxPoint x="470" y="540" as="targetPoint" />
            <Array as="points">
              <mxPoint x="435" y="570" />
            </Array>
          </mxGeometry>
        </mxCell>
        <mxCell id="eODNS1rkglVLY219tLkL-176" value="Stazione Partenza" style="edgeLabel;html=1;align=center;verticalAlign=middle;resizable=0;points=[];" parent="eODNS1rkglVLY219tLkL-175" vertex="1" connectable="0">
          <mxGeometry x="-0.25" y="-2" relative="1" as="geometry">
            <mxPoint x="93" y="2" as="offset" />
          </mxGeometry>
        </mxCell>
        <mxCell id="eODNS1rkglVLY219tLkL-177" value="" style="html=1;verticalAlign=bottom;labelBackgroundColor=none;startArrow=oval;startFill=0;startSize=8;endArrow=none;rounded=0;entryX=0;entryY=0;entryDx=0;entryDy=0;" parent="1" target="eODNS1rkglVLY219tLkL-8" edge="1">
          <mxGeometry x="-1" y="3" relative="1" as="geometry">
            <mxPoint x="320" y="460" as="sourcePoint" />
            <mxPoint x="470" y="502.5" as="targetPoint" />
            <Array as="points" />
          </mxGeometry>
        </mxCell>
        <mxCell id="eODNS1rkglVLY219tLkL-178" value="Data&lt;div&gt;Inizio&lt;/div&gt;" style="edgeLabel;html=1;align=center;verticalAlign=middle;resizable=0;points=[];" parent="eODNS1rkglVLY219tLkL-177" vertex="1" connectable="0">
          <mxGeometry x="-0.25" y="-2" relative="1" as="geometry">
            <mxPoint x="-16" y="-32" as="offset" />
          </mxGeometry>
        </mxCell>
        <mxCell id="eODNS1rkglVLY219tLkL-179" value="" style="html=1;verticalAlign=bottom;labelBackgroundColor=none;startArrow=oval;startFill=0;startSize=8;endArrow=none;rounded=0;entryX=0;entryY=0.25;entryDx=0;entryDy=0;" parent="1" target="eODNS1rkglVLY219tLkL-8" edge="1">
          <mxGeometry x="-1" y="3" relative="1" as="geometry">
            <mxPoint x="290" y="480" as="sourcePoint" />
            <mxPoint x="370" y="500" as="targetPoint" />
            <Array as="points" />
          </mxGeometry>
        </mxCell>
        <mxCell id="eODNS1rkglVLY219tLkL-180" value="Data&lt;div&gt;Fine&lt;/div&gt;" style="edgeLabel;html=1;align=center;verticalAlign=middle;resizable=0;points=[];" parent="eODNS1rkglVLY219tLkL-179" vertex="1" connectable="0">
          <mxGeometry x="-0.25" y="-2" relative="1" as="geometry">
            <mxPoint x="-36" y="-30" as="offset" />
          </mxGeometry>
        </mxCell>
        <mxCell id="eODNS1rkglVLY219tLkL-183" value="" style="html=1;verticalAlign=bottom;labelBackgroundColor=none;startArrow=oval;startFill=0;startSize=8;endArrow=none;rounded=0;entryX=1;entryY=0.75;entryDx=0;entryDy=0;" parent="1" edge="1">
          <mxGeometry x="-1" y="3" relative="1" as="geometry">
            <mxPoint x="510.00000000000006" y="231" as="sourcePoint" />
            <mxPoint x="459.99999999999994" y="231" as="targetPoint" />
            <Array as="points" />
          </mxGeometry>
        </mxCell>
        <mxCell id="eODNS1rkglVLY219tLkL-184" value="Classe" style="edgeLabel;html=1;align=center;verticalAlign=middle;resizable=0;points=[];" parent="eODNS1rkglVLY219tLkL-183" vertex="1" connectable="0">
          <mxGeometry x="-0.25" y="-2" relative="1" as="geometry">
            <mxPoint x="47" y="3" as="offset" />
          </mxGeometry>
        </mxCell>
        <mxCell id="eODNS1rkglVLY219tLkL-185" value="" style="html=1;verticalAlign=bottom;labelBackgroundColor=none;startArrow=oval;startFill=0;startSize=8;endArrow=none;rounded=0;entryX=0.75;entryY=1;entryDx=0;entryDy=0;" parent="1" target="eODNS1rkglVLY219tLkL-53" edge="1">
          <mxGeometry x="-1" y="3" relative="1" as="geometry">
            <mxPoint x="510" y="250" as="sourcePoint" />
            <mxPoint x="459.99999999999994" y="236" as="targetPoint" />
            <Array as="points">
              <mxPoint x="435" y="250" />
            </Array>
          </mxGeometry>
        </mxCell>
        <mxCell id="eODNS1rkglVLY219tLkL-186" value="Prezzo" style="edgeLabel;html=1;align=center;verticalAlign=middle;resizable=0;points=[];" parent="eODNS1rkglVLY219tLkL-185" vertex="1" connectable="0">
          <mxGeometry x="-0.25" y="-2" relative="1" as="geometry">
            <mxPoint x="55" y="2" as="offset" />
          </mxGeometry>
        </mxCell>
        <mxCell id="eODNS1rkglVLY219tLkL-187" value="" style="html=1;verticalAlign=bottom;labelBackgroundColor=none;startArrow=oval;startFill=1;startSize=8;endArrow=none;rounded=0;entryX=1;entryY=0.5;entryDx=0;entryDy=0;" parent="1" edge="1">
          <mxGeometry x="-1" y="3" relative="1" as="geometry">
            <mxPoint x="40" y="368" as="sourcePoint" />
            <mxPoint x="20" y="368" as="targetPoint" />
            <Array as="points" />
          </mxGeometry>
        </mxCell>
        <mxCell id="eODNS1rkglVLY219tLkL-188" value="Partita Iva" style="edgeLabel;html=1;align=center;verticalAlign=middle;resizable=0;points=[];" parent="eODNS1rkglVLY219tLkL-187" vertex="1" connectable="0">
          <mxGeometry x="-0.25" y="-2" relative="1" as="geometry">
            <mxPoint x="48" y="2" as="offset" />
          </mxGeometry>
        </mxCell>
        <mxCell id="GVSm5cRxoAovmWzhfuRe-1" value="Prenotazione" style="rounded=0;whiteSpace=wrap;html=1;" vertex="1" parent="1">
          <mxGeometry x="46.18" y="120" width="100" height="40" as="geometry" />
        </mxCell>
        <mxCell id="GVSm5cRxoAovmWzhfuRe-4" value="Genera" style="shape=rhombus;perimeter=rhombusPerimeter;whiteSpace=wrap;html=1;align=center;" vertex="1" parent="1">
          <mxGeometry x="190" y="190" width="120" height="60" as="geometry" />
        </mxCell>
        <mxCell id="GVSm5cRxoAovmWzhfuRe-6" value="" style="endArrow=none;html=1;rounded=0;exitX=0.895;exitY=1.05;exitDx=0;exitDy=0;entryX=0;entryY=0.5;entryDx=0;entryDy=0;exitPerimeter=0;" edge="1" parent="1" source="GVSm5cRxoAovmWzhfuRe-1" target="GVSm5cRxoAovmWzhfuRe-4">
          <mxGeometry width="50" height="50" relative="1" as="geometry">
            <mxPoint x="96.18" y="230" as="sourcePoint" />
            <mxPoint x="96.18" y="180" as="targetPoint" />
            <Array as="points">
              <mxPoint x="136" y="220" />
            </Array>
          </mxGeometry>
        </mxCell>
        <mxCell id="GVSm5cRxoAovmWzhfuRe-7" value="" style="endArrow=none;html=1;rounded=0;exitX=1;exitY=0.5;exitDx=0;exitDy=0;entryX=0;entryY=0.5;entryDx=0;entryDy=0;" edge="1" parent="1" source="GVSm5cRxoAovmWzhfuRe-4" target="eODNS1rkglVLY219tLkL-53">
          <mxGeometry width="50" height="50" relative="1" as="geometry">
            <mxPoint x="176.18" y="130" as="sourcePoint" />
            <mxPoint x="226.18" y="130" as="targetPoint" />
          </mxGeometry>
        </mxCell>
        <mxCell id="GVSm5cRxoAovmWzhfuRe-8" value="" style="html=1;verticalAlign=bottom;labelBackgroundColor=none;startArrow=oval;startFill=1;startSize=8;endArrow=none;rounded=0;entryX=0.25;entryY=0;entryDx=0;entryDy=0;" edge="1" parent="1">
          <mxGeometry x="-1" y="3" relative="1" as="geometry">
            <mxPoint x="55.18" y="80" as="sourcePoint" />
            <mxPoint x="55.18" y="120" as="targetPoint" />
            <Array as="points" />
          </mxGeometry>
        </mxCell>
        <mxCell id="GVSm5cRxoAovmWzhfuRe-9" value="Numero&lt;div&gt;Prenotazione&lt;/div&gt;" style="edgeLabel;html=1;align=center;verticalAlign=middle;resizable=0;points=[];" vertex="1" connectable="0" parent="GVSm5cRxoAovmWzhfuRe-8">
          <mxGeometry x="-0.25" y="-2" relative="1" as="geometry">
            <mxPoint x="-13" y="-34" as="offset" />
          </mxGeometry>
        </mxCell>
        <mxCell id="GVSm5cRxoAovmWzhfuRe-12" value="" style="html=1;verticalAlign=bottom;labelBackgroundColor=none;startArrow=oval;startFill=0;startSize=8;endArrow=none;rounded=0;entryX=0.75;entryY=0;entryDx=0;entryDy=0;" edge="1" parent="1">
          <mxGeometry x="-1" y="3" relative="1" as="geometry">
            <mxPoint x="95" y="50" as="sourcePoint" />
            <mxPoint x="95.35000000000001" y="120" as="targetPoint" />
            <Array as="points" />
          </mxGeometry>
        </mxCell>
        <mxCell id="GVSm5cRxoAovmWzhfuRe-13" value="Stato&lt;div&gt;Prenotazione&lt;/div&gt;" style="edgeLabel;html=1;align=center;verticalAlign=middle;resizable=0;points=[];" vertex="1" connectable="0" parent="GVSm5cRxoAovmWzhfuRe-12">
          <mxGeometry x="-0.25" y="-2" relative="1" as="geometry">
            <mxPoint x="1" y="-46" as="offset" />
          </mxGeometry>
        </mxCell>
        <mxCell id="GVSm5cRxoAovmWzhfuRe-14" value="" style="html=1;verticalAlign=bottom;labelBackgroundColor=none;startArrow=oval;startFill=0;startSize=8;endArrow=none;rounded=0;entryX=1;entryY=0;entryDx=0;entryDy=0;" edge="1" parent="1" target="GVSm5cRxoAovmWzhfuRe-1">
          <mxGeometry x="-1" y="3" relative="1" as="geometry">
            <mxPoint x="166.18" y="100" as="sourcePoint" />
            <mxPoint x="136.18" y="150" as="targetPoint" />
            <Array as="points" />
          </mxGeometry>
        </mxCell>
        <mxCell id="GVSm5cRxoAovmWzhfuRe-15" value="Numero&lt;div&gt;Passeggeri&lt;/div&gt;" style="edgeLabel;html=1;align=center;verticalAlign=middle;resizable=0;points=[];" vertex="1" connectable="0" parent="GVSm5cRxoAovmWzhfuRe-14">
          <mxGeometry x="-0.25" y="-2" relative="1" as="geometry">
            <mxPoint x="40" y="-29" as="offset" />
          </mxGeometry>
        </mxCell>
        <mxCell id="GVSm5cRxoAovmWzhfuRe-18" value="" style="html=1;verticalAlign=bottom;labelBackgroundColor=none;startArrow=oval;startFill=0;startSize=8;endArrow=none;rounded=0;entryX=0.895;entryY=-0.012;entryDx=0;entryDy=0;entryPerimeter=0;" edge="1" parent="1" target="eODNS1rkglVLY219tLkL-53">
          <mxGeometry x="-1" y="3" relative="1" as="geometry">
            <mxPoint x="510" y="180" as="sourcePoint" />
            <mxPoint x="489.99999999999994" y="130" as="targetPoint" />
            <Array as="points">
              <mxPoint x="450" y="180" />
            </Array>
          </mxGeometry>
        </mxCell>
        <mxCell id="GVSm5cRxoAovmWzhfuRe-19" value="Numero Carrozza" style="edgeLabel;html=1;align=center;verticalAlign=middle;resizable=0;points=[];" vertex="1" connectable="0" parent="GVSm5cRxoAovmWzhfuRe-18">
          <mxGeometry x="-0.25" y="-2" relative="1" as="geometry">
            <mxPoint x="83" y="3" as="offset" />
          </mxGeometry>
        </mxCell>
        <mxCell id="GVSm5cRxoAovmWzhfuRe-20" value="" style="html=1;verticalAlign=bottom;labelBackgroundColor=none;startArrow=oval;startFill=0;startSize=8;endArrow=none;rounded=0;entryX=1;entryY=0.25;entryDx=0;entryDy=0;" edge="1" parent="1">
          <mxGeometry x="-1" y="3" relative="1" as="geometry">
            <mxPoint x="510" y="217" as="sourcePoint" />
            <mxPoint x="459.99999999999994" y="217" as="targetPoint" />
            <Array as="points" />
          </mxGeometry>
        </mxCell>
        <mxCell id="GVSm5cRxoAovmWzhfuRe-21" value="Lettera Posto" style="edgeLabel;html=1;align=center;verticalAlign=middle;resizable=0;points=[];" vertex="1" connectable="0" parent="GVSm5cRxoAovmWzhfuRe-20">
          <mxGeometry x="-0.25" y="-2" relative="1" as="geometry">
            <mxPoint x="64" y="1" as="offset" />
          </mxGeometry>
        </mxCell>
        <mxCell id="GVSm5cRxoAovmWzhfuRe-24" value="" style="html=1;verticalAlign=bottom;labelBackgroundColor=none;startArrow=oval;startFill=0;startSize=8;endArrow=none;rounded=0;entryX=0.75;entryY=0;entryDx=0;entryDy=0;" edge="1" parent="1" target="GVSm5cRxoAovmWzhfuRe-1">
          <mxGeometry x="-1" y="3" relative="1" as="geometry">
            <mxPoint x="121.18" y="100" as="sourcePoint" />
            <mxPoint x="326.17999999999995" y="110" as="targetPoint" />
            <Array as="points" />
          </mxGeometry>
        </mxCell>
        <mxCell id="GVSm5cRxoAovmWzhfuRe-25" value="Importo" style="edgeLabel;html=1;align=center;verticalAlign=middle;resizable=0;points=[];" vertex="1" connectable="0" parent="GVSm5cRxoAovmWzhfuRe-24">
          <mxGeometry x="-0.25" y="-2" relative="1" as="geometry">
            <mxPoint x="6" y="-25" as="offset" />
          </mxGeometry>
        </mxCell>
        <mxCell id="GVSm5cRxoAovmWzhfuRe-26" value="" style="endArrow=none;html=1;rounded=0;exitX=0;exitY=0.5;exitDx=0;exitDy=0;entryX=0.5;entryY=0;entryDx=0;entryDy=0;" edge="1" parent="1" source="GVSm5cRxoAovmWzhfuRe-1" target="eODNS1rkglVLY219tLkL-3">
          <mxGeometry width="50" height="50" relative="1" as="geometry">
            <mxPoint x="-20" y="250" as="sourcePoint" />
            <mxPoint x="-50" y="250" as="targetPoint" />
            <Array as="points">
              <mxPoint x="30" y="140" />
            </Array>
          </mxGeometry>
        </mxCell>
        <mxCell id="GVSm5cRxoAovmWzhfuRe-27" value="" style="html=1;verticalAlign=bottom;labelBackgroundColor=none;startArrow=oval;startFill=0;startSize=8;endArrow=none;rounded=0;entryX=1;entryY=0.75;entryDx=0;entryDy=0;" edge="1" parent="1" target="eODNS1rkglVLY219tLkL-46">
          <mxGeometry x="-1" y="3" relative="1" as="geometry">
            <mxPoint x="50" y="390" as="sourcePoint" />
            <mxPoint x="-40" y="250" as="targetPoint" />
            <Array as="points" />
          </mxGeometry>
        </mxCell>
        <mxCell id="GVSm5cRxoAovmWzhfuRe-28" value="Pec" style="edgeLabel;html=1;align=center;verticalAlign=middle;resizable=0;points=[];" vertex="1" connectable="0" parent="GVSm5cRxoAovmWzhfuRe-27">
          <mxGeometry x="-0.25" y="-2" relative="1" as="geometry">
            <mxPoint x="30" y="2" as="offset" />
          </mxGeometry>
        </mxCell>
        <mxCell id="GVSm5cRxoAovmWzhfuRe-29" value="" style="html=1;verticalAlign=bottom;labelBackgroundColor=none;startArrow=oval;startFill=0;startSize=8;endArrow=none;rounded=0;entryX=1;entryY=0.25;entryDx=0;entryDy=0;" edge="1" parent="1">
          <mxGeometry x="-1" y="3" relative="1" as="geometry">
            <mxPoint x="190" y="129" as="sourcePoint" />
            <mxPoint x="146.17999999999984" y="129" as="targetPoint" />
            <Array as="points" />
          </mxGeometry>
        </mxCell>
        <mxCell id="GVSm5cRxoAovmWzhfuRe-30" value="Data Partenza" style="edgeLabel;html=1;align=center;verticalAlign=middle;resizable=0;points=[];" vertex="1" connectable="0" parent="GVSm5cRxoAovmWzhfuRe-29">
          <mxGeometry x="-0.25" y="-2" relative="1" as="geometry">
            <mxPoint x="61" y="1" as="offset" />
          </mxGeometry>
        </mxCell>
        <mxCell id="GVSm5cRxoAovmWzhfuRe-31" value="" style="html=1;verticalAlign=bottom;labelBackgroundColor=none;startArrow=oval;startFill=0;startSize=8;endArrow=none;rounded=0;entryX=1;entryY=0.5;entryDx=0;entryDy=0;" edge="1" parent="1">
          <mxGeometry x="-1" y="3" relative="1" as="geometry">
            <mxPoint x="190" y="142" as="sourcePoint" />
            <mxPoint x="146.17999999999984" y="142" as="targetPoint" />
            <Array as="points" />
          </mxGeometry>
        </mxCell>
        <mxCell id="GVSm5cRxoAovmWzhfuRe-32" value="Ora Partenza" style="edgeLabel;html=1;align=center;verticalAlign=middle;resizable=0;points=[];" vertex="1" connectable="0" parent="GVSm5cRxoAovmWzhfuRe-31">
          <mxGeometry x="-0.25" y="-2" relative="1" as="geometry">
            <mxPoint x="59" y="1" as="offset" />
          </mxGeometry>
        </mxCell>
        <mxCell id="GVSm5cRxoAovmWzhfuRe-35" value="Valido" style="shape=rhombus;perimeter=rhombusPerimeter;whiteSpace=wrap;html=1;align=center;" vertex="1" parent="1">
          <mxGeometry x="350" y="328" width="120" height="60" as="geometry" />
        </mxCell>
        <mxCell id="GVSm5cRxoAovmWzhfuRe-38" value="" style="html=1;verticalAlign=bottom;labelBackgroundColor=none;startArrow=oval;startFill=0;startSize=8;endArrow=none;rounded=0;entryX=1;entryY=0.25;entryDx=0;entryDy=0;" edge="1" parent="1">
          <mxGeometry x="-1" y="3" relative="1" as="geometry">
            <mxPoint x="510" y="203" as="sourcePoint" />
            <mxPoint x="460" y="203" as="targetPoint" />
            <Array as="points" />
          </mxGeometry>
        </mxCell>
        <mxCell id="GVSm5cRxoAovmWzhfuRe-39" value="Fila" style="edgeLabel;html=1;align=center;verticalAlign=middle;resizable=0;points=[];" vertex="1" connectable="0" parent="GVSm5cRxoAovmWzhfuRe-38">
          <mxGeometry x="-0.25" y="-2" relative="1" as="geometry">
            <mxPoint x="41" y="1" as="offset" />
          </mxGeometry>
        </mxCell>
        <mxCell id="GVSm5cRxoAovmWzhfuRe-40" value="" style="endArrow=none;html=1;rounded=0;exitX=0.5;exitY=0;exitDx=0;exitDy=0;entryX=0.5;entryY=1;entryDx=0;entryDy=0;" edge="1" parent="1" source="GVSm5cRxoAovmWzhfuRe-35" target="eODNS1rkglVLY219tLkL-53">
          <mxGeometry width="50" height="50" relative="1" as="geometry">
            <mxPoint x="320" y="220" as="sourcePoint" />
            <mxPoint x="370" y="220" as="targetPoint" />
          </mxGeometry>
        </mxCell>
        <mxCell id="GVSm5cRxoAovmWzhfuRe-41" value="" style="endArrow=none;html=1;rounded=0;exitX=0.5;exitY=0;exitDx=0;exitDy=0;entryX=0.5;entryY=1;entryDx=0;entryDy=0;" edge="1" parent="1" source="eODNS1rkglVLY219tLkL-8" target="GVSm5cRxoAovmWzhfuRe-35">
          <mxGeometry width="50" height="50" relative="1" as="geometry">
            <mxPoint x="410" y="360" as="sourcePoint" />
            <mxPoint x="410" y="290" as="targetPoint" />
          </mxGeometry>
        </mxCell>
        <mxCell id="GVSm5cRxoAovmWzhfuRe-42" value="" style="html=1;verticalAlign=bottom;labelBackgroundColor=none;startArrow=oval;startFill=0;startSize=8;endArrow=none;rounded=0;entryX=0.25;entryY=1;entryDx=0;entryDy=0;" edge="1" parent="1">
          <mxGeometry x="-1" y="3" relative="1" as="geometry">
            <mxPoint x="104" y="180" as="sourcePoint" />
            <mxPoint x="104.17999999999984" y="160" as="targetPoint" />
            <Array as="points" />
          </mxGeometry>
        </mxCell>
        <mxCell id="GVSm5cRxoAovmWzhfuRe-43" value="Numero&lt;div&gt;Cambi&lt;/div&gt;" style="edgeLabel;html=1;align=center;verticalAlign=middle;resizable=0;points=[];" vertex="1" connectable="0" parent="GVSm5cRxoAovmWzhfuRe-42">
          <mxGeometry x="-0.25" y="-2" relative="1" as="geometry">
            <mxPoint x="-2" y="27" as="offset" />
          </mxGeometry>
        </mxCell>
        <mxCell id="GVSm5cRxoAovmWzhfuRe-46" value="" style="html=1;verticalAlign=bottom;labelBackgroundColor=none;startArrow=oval;startFill=0;startSize=8;endArrow=none;rounded=0;entryX=0;entryY=1;entryDx=0;entryDy=0;" edge="1" parent="1" target="eODNS1rkglVLY219tLkL-53">
          <mxGeometry x="-1" y="3" relative="1" as="geometry">
            <mxPoint x="310" y="270" as="sourcePoint" />
            <mxPoint x="490" y="210" as="targetPoint" />
            <Array as="points" />
          </mxGeometry>
        </mxCell>
        <mxCell id="GVSm5cRxoAovmWzhfuRe-47" value="Stazione&lt;div&gt;Partenza&lt;/div&gt;" style="edgeLabel;html=1;align=center;verticalAlign=middle;resizable=0;points=[];" vertex="1" connectable="0" parent="GVSm5cRxoAovmWzhfuRe-46">
          <mxGeometry x="-0.25" y="-2" relative="1" as="geometry">
            <mxPoint x="-32" y="29" as="offset" />
          </mxGeometry>
        </mxCell>
        <mxCell id="GVSm5cRxoAovmWzhfuRe-48" value="" style="html=1;verticalAlign=bottom;labelBackgroundColor=none;startArrow=oval;startFill=0;startSize=8;endArrow=none;rounded=0;entryX=0.25;entryY=1;entryDx=0;entryDy=0;" edge="1" parent="1">
          <mxGeometry x="-1" y="3" relative="1" as="geometry">
            <mxPoint x="350" y="280" as="sourcePoint" />
            <mxPoint x="375" y="240" as="targetPoint" />
            <Array as="points" />
          </mxGeometry>
        </mxCell>
        <mxCell id="GVSm5cRxoAovmWzhfuRe-49" value="Stazione&lt;div&gt;Arrivo&lt;/div&gt;" style="edgeLabel;html=1;align=center;verticalAlign=middle;resizable=0;points=[];" vertex="1" connectable="0" parent="GVSm5cRxoAovmWzhfuRe-48">
          <mxGeometry x="-0.25" y="-2" relative="1" as="geometry">
            <mxPoint x="-11" y="34" as="offset" />
          </mxGeometry>
        </mxCell>
        <mxCell id="GVSm5cRxoAovmWzhfuRe-50" value="" style="html=1;verticalAlign=bottom;labelBackgroundColor=none;startArrow=oval;startFill=0;startSize=8;endArrow=none;rounded=0;entryX=0.5;entryY=0;entryDx=0;entryDy=0;" edge="1" parent="1">
          <mxGeometry x="-1" y="3" relative="1" as="geometry">
            <mxPoint x="417" y="179" as="sourcePoint" />
            <mxPoint x="417" y="199" as="targetPoint" />
            <Array as="points" />
          </mxGeometry>
        </mxCell>
        <mxCell id="GVSm5cRxoAovmWzhfuRe-51" value="Data&amp;nbsp;&lt;div&gt;Validita&lt;/div&gt;" style="edgeLabel;html=1;align=center;verticalAlign=middle;resizable=0;points=[];" vertex="1" connectable="0" parent="GVSm5cRxoAovmWzhfuRe-50">
          <mxGeometry x="-0.25" y="-2" relative="1" as="geometry">
            <mxPoint x="4" y="-28" as="offset" />
          </mxGeometry>
        </mxCell>
        <mxCell id="GVSm5cRxoAovmWzhfuRe-52" value="" style="endArrow=none;html=1;rounded=0;exitX=0.75;exitY=0;exitDx=0;exitDy=0;entryX=0;entryY=0.5;entryDx=0;entryDy=0;" edge="1" parent="1" source="eODNS1rkglVLY219tLkL-8" target="eODNS1rkglVLY219tLkL-7">
          <mxGeometry width="50" height="50" relative="1" as="geometry">
            <mxPoint x="410" y="510" as="sourcePoint" />
            <mxPoint x="410" y="410" as="targetPoint" />
            <Array as="points">
              <mxPoint x="435" y="420" />
            </Array>
          </mxGeometry>
        </mxCell>
        <mxCell id="GVSm5cRxoAovmWzhfuRe-53" value="" style="html=1;verticalAlign=bottom;labelBackgroundColor=none;startArrow=oval;startFill=0;startSize=8;endArrow=none;rounded=0;entryX=0.25;entryY=0;entryDx=0;entryDy=0;" edge="1" parent="1" target="eODNS1rkglVLY219tLkL-5">
          <mxGeometry x="-1" y="3" relative="1" as="geometry">
            <mxPoint x="735" y="370" as="sourcePoint" />
            <mxPoint x="840" y="410" as="targetPoint" />
            <Array as="points" />
          </mxGeometry>
        </mxCell>
        <mxCell id="GVSm5cRxoAovmWzhfuRe-54" value="Numero Posti" style="edgeLabel;html=1;align=center;verticalAlign=middle;resizable=0;points=[];" vertex="1" connectable="0" parent="GVSm5cRxoAovmWzhfuRe-53">
          <mxGeometry x="-0.25" y="-2" relative="1" as="geometry">
            <mxPoint x="-13" y="-27" as="offset" />
          </mxGeometry>
        </mxCell>
        <mxCell id="GVSm5cRxoAovmWzhfuRe-55" value="" style="html=1;verticalAlign=bottom;labelBackgroundColor=none;startArrow=oval;startFill=0;startSize=8;endArrow=none;rounded=0;entryX=0.25;entryY=0;entryDx=0;entryDy=0;" edge="1" parent="1" target="eODNS1rkglVLY219tLkL-8">
          <mxGeometry x="-1" y="3" relative="1" as="geometry">
            <mxPoint x="385" y="460" as="sourcePoint" />
            <mxPoint x="400" y="490" as="targetPoint" />
            <Array as="points" />
          </mxGeometry>
        </mxCell>
        <mxCell id="GVSm5cRxoAovmWzhfuRe-56" value="Posti&lt;div&gt;Disponibili&lt;/div&gt;" style="edgeLabel;html=1;align=center;verticalAlign=middle;resizable=0;points=[];" vertex="1" connectable="0" parent="GVSm5cRxoAovmWzhfuRe-55">
          <mxGeometry x="-0.25" y="-2" relative="1" as="geometry">
            <mxPoint x="-3" y="-31" as="offset" />
          </mxGeometry>
        </mxCell>
        <mxCell id="GVSm5cRxoAovmWzhfuRe-57" value="(0,N)" style="text;html=1;align=center;verticalAlign=middle;whiteSpace=wrap;rounded=0;" vertex="1" parent="1">
          <mxGeometry x="-60" y="220" width="60" height="30" as="geometry" />
        </mxCell>
        <mxCell id="GVSm5cRxoAovmWzhfuRe-58" value="(1,N)" style="text;html=1;align=center;verticalAlign=middle;whiteSpace=wrap;rounded=0;" vertex="1" parent="1">
          <mxGeometry x="22" y="197" width="50" height="20" as="geometry" />
        </mxCell>
        <mxCell id="GVSm5cRxoAovmWzhfuRe-60" value="(1,N)" style="text;html=1;align=center;verticalAlign=middle;whiteSpace=wrap;rounded=0;" vertex="1" parent="1">
          <mxGeometry x="155" y="198" width="50" height="20" as="geometry" />
        </mxCell>
        <mxCell id="GVSm5cRxoAovmWzhfuRe-61" value="(1,1)" style="text;html=1;align=center;verticalAlign=middle;whiteSpace=wrap;rounded=0;" vertex="1" parent="1">
          <mxGeometry x="299" y="197" width="50" height="20" as="geometry" />
        </mxCell>
        <mxCell id="GVSm5cRxoAovmWzhfuRe-62" value="(1,N)" style="text;html=1;align=center;verticalAlign=middle;whiteSpace=wrap;rounded=0;" vertex="1" parent="1">
          <mxGeometry x="410" y="310" width="50" height="20" as="geometry" />
        </mxCell>
        <mxCell id="GVSm5cRxoAovmWzhfuRe-63" value="(1,1)" style="text;html=1;align=center;verticalAlign=middle;whiteSpace=wrap;rounded=0;" vertex="1" parent="1">
          <mxGeometry x="362" y="388" width="50" height="20" as="geometry" />
        </mxCell>
        <mxCell id="GVSm5cRxoAovmWzhfuRe-64" value="(1,N)" style="text;html=1;align=center;verticalAlign=middle;whiteSpace=wrap;rounded=0;" vertex="1" parent="1">
          <mxGeometry x="400" y="580" width="50" height="20" as="geometry" />
        </mxCell>
        <mxCell id="GVSm5cRxoAovmWzhfuRe-65" value="(1,N)" style="text;html=1;align=center;verticalAlign=middle;whiteSpace=wrap;rounded=0;" vertex="1" parent="1">
          <mxGeometry x="360" y="660" width="50" height="20" as="geometry" />
        </mxCell>
        <mxCell id="GVSm5cRxoAovmWzhfuRe-66" value="(1,N)" style="text;html=1;align=center;verticalAlign=middle;whiteSpace=wrap;rounded=0;" vertex="1" parent="1">
          <mxGeometry x="490" y="400" width="50" height="20" as="geometry" />
        </mxCell>
        <mxCell id="GVSm5cRxoAovmWzhfuRe-67" value="(0,N)" style="text;html=1;align=center;verticalAlign=middle;whiteSpace=wrap;rounded=0;" vertex="1" parent="1">
          <mxGeometry x="640" y="400" width="50" height="20" as="geometry" />
        </mxCell>
        <mxCell id="GVSm5cRxoAovmWzhfuRe-68" value="(0,1)" style="text;html=1;align=center;verticalAlign=middle;whiteSpace=wrap;rounded=0;" vertex="1" parent="1">
          <mxGeometry x="144" y="548" width="50" height="20" as="geometry" />
        </mxCell>
        <mxCell id="GVSm5cRxoAovmWzhfuRe-69" value="(1,N)" style="text;html=1;align=center;verticalAlign=middle;whiteSpace=wrap;rounded=0;" vertex="1" parent="1">
          <mxGeometry x="220" y="490" width="50" height="20" as="geometry" />
        </mxCell>
      </root>
    </mxGraphModel>
  </diagram>
</mxfile>
